<svg preserveAspectRatio="none" width="100%" height="100%" overflow="visible" style="display: block;" viewBox="0 0 20 20" fill="none" xmlns="http://www.w3.org/2000/svg">
<g id="clock">
<path id="Vector" opacity="0.4" d="M10 18.3333C14.6024 18.3333 18.3333 14.6024 18.3333 10C18.3333 5.39763 14.6024 1.66667 10 1.66667C5.39763 1.66667 1.66667 5.39763 1.66667 10C1.66667 14.6024 5.39763 18.3333 10 18.3333Z" fill="var(--fill-0, #292D32)"/>
<path id="Vector_2" d="M13.0917 13.275C12.9833 13.275 12.875 13.25 12.775 13.1833L10.1917 11.6417C9.55 11.2583 9.075 10.4167 9.075 9.675V6.25833C9.075 5.91667 9.35833 5.63333 9.7 5.63333C10.0417 5.63333 10.325 5.91667 10.325 6.25833V9.675C10.325 9.975 10.575 10.4167 10.8333 10.5667L13.4167 12.1083C13.7167 12.2833 13.8083 12.6667 13.6333 12.9667C13.5083 13.1667 13.3 13.275 13.0917 13.275Z" fill="var(--fill-0, #292D32)"/>
<g id="Vector_3" opacity="0">
</g>
</g>
</svg>
